<svg width="13" height="8" viewBox="0 0 13 8" fill="none" xmlns="http://www.w3.org/2000/svg">
<path d="M0.187546 4.43684C0.203175 4.45204 0.218804 4.46644 0.234433 4.48004L3.50086 7.81844C3.55556 7.87524 3.61808 7.92085 3.68841 7.95204C3.75874 7.98324 3.83688 8.00004 3.91503 8.00004C3.99317 8.00084 4.07131 7.98565 4.14164 7.95525C4.21197 7.92564 4.27449 7.88085 4.32919 7.82484C4.38389 7.76804 4.43078 7.70164 4.46204 7.62804C4.49329 7.55444 4.50111 7.47524 4.50111 7.39604C4.50111 7.31684 4.48548 7.23764 4.45422 7.16484C4.42296 7.09204 4.38389 7.02564 4.32919 6.96964L2.00831 4.60004H12.1983C12.2765 4.60164 12.3546 4.58724 12.4249 4.55764C12.5031 4.52804 12.5656 4.48404 12.6203 4.42884C12.675 4.37284 12.7219 4.30564 12.7531 4.23204C12.7844 4.15924 12.8 4.08004 12.8 4.00004C12.8 3.92004 12.7844 3.84164 12.7531 3.76804C12.7219 3.69444 12.675 3.62804 12.6203 3.57204C12.5656 3.51604 12.5031 3.47204 12.4249 3.44244C12.3546 3.41284 12.2765 3.39844 12.1983 3.40004H2.00831L4.32919 1.03043C4.38389 0.975232 4.42296 0.908832 4.45422 0.835232C4.48548 0.762431 4.50111 0.684031 4.50111 0.604031C4.50111 0.524831 4.49329 0.445631 4.46204 0.372031C4.43078 0.298431 4.38389 0.23203 4.32919 0.17603C4.27449 0.11923 4.21197 0.0752302 4.14164 0.0448301C4.07131 0.01443 3.99317 -0.000769989 3.91503 3.00126e-05C3.83688 0.000830014 3.75874 0.01683 3.68841 0.0480301C3.61808 0.0792302 3.55556 0.12483 3.50086 0.18163L0.234433 3.52164C0.164103 3.57444 0.109402 3.64164 0.0703298 3.71844C0.0312577 3.79604 0.00781442 3.88084 0 3.96804C0 4.05524 0.0156288 4.14164 0.0468865 4.22324C0.0781442 4.30404 0.125031 4.37684 0.187546 4.43684Z" fill="white"/>
</svg>
