<svg width="48" height="6" viewBox="0 0 48 6" fill="none" xmlns="http://www.w3.org/2000/svg">
<path opacity="0.3" d="M18 3C18 1.89543 17.1046 1 16 1C14.8954 1 14 1.89543 14 3C14 4.10457 14.8954 5 16 5C17.1046 5 18 4.10457 18 3Z" fill="#2CB9B0"/>
<path opacity="0.3" d="M48 3C48 1.89543 47.1046 1 46 1C44.8954 1 44 1.89543 44 3C44 4.10457 44.8954 5 46 5C47.1046 5 48 4.10457 48 3Z" fill="#2CB9B0"/>
<path opacity="0.3" d="M4 3C4 1.89543 3.10457 1 2 1C0.89543 1 0 1.89543 0 3C0 4.10457 0.89543 5 2 5C3.10457 5 4 4.10457 4 3Z" fill="#2CB9B0"/>
<path d="M34 3C34 1.34315 32.6569 0 31 0C29.3431 0 28 1.34315 28 3C28 4.65685 29.3431 6 31 6C32.6569 6 34 4.65685 34 3Z" fill="#2CB9B0"/>
</svg>
